<svg overflow="visible" style="display: block;" width="128" height="32" viewBox="0 0 128 32" fill="none" xmlns="http://www.w3.org/2000/svg">
<path id="Vector" d="M83.2594 18.5739H80.533L83.0847 14.1217H85.5314C86.8247 14.1217 87.1742 14.5739 87.1742 15.4087C87.1742 16.8696 86.0557 18.5739 83.2594 18.5739ZM64.1398 32H72.8782L77.7717 23.4087C78.7504 24.2435 80.6379 25.7391 84.0633 25.7391C89.7608 25.7391 95.3883 21.6348 95.3883 14.7478C95.3883 8.76522 92.1376 6.95652 87.6985 6.95652C84.6925 6.95652 82.071 7.96522 80.8476 8.62609L78.4009 7.09565L64.1398 32ZM19.1196 18.5739H16.3932L18.9448 14.1217H21.3916C22.6849 14.1217 23.0344 14.5739 23.0344 15.4087C23.0344 16.8696 21.9159 18.5739 19.1196 18.5739ZM0 32H8.73839L13.6319 23.4087C14.6106 24.2435 16.4981 25.7391 19.9235 25.7391C25.621 25.7391 31.2485 21.6348 31.2485 14.7478C31.2485 8.76522 27.9978 6.95652 23.5587 6.95652C20.5527 6.95652 17.9312 7.96522 16.7078 8.62609L14.2611 7.09565L0 32ZM72.249 14.1217L76.2687 7.09565H73.5074C66.9711 7.09565 63.1961 10.1913 61.728 12.2087H61.6232V7.65217H53.5838V25.0435H61.6232V14.1217H72.249ZM43.3075 16.9043C43.3075 18.1913 42.8181 18.5739 42.0841 18.5739C41.3151 18.5739 40.8607 18.1913 40.8607 16.9043V7.65217H32.8214V17.0087C32.8214 24.2435 37.1906 25.7391 42.0841 25.7391C46.9776 25.7391 51.3468 24.2435 51.3468 17.0087V7.65217H43.3075V16.9043ZM114.508 16.2783C114.613 15.0261 115.312 14.1217 117.234 14.1217C119.157 14.1217 119.856 15.0261 119.961 16.2783H114.508ZM117.234 6.95652C110.034 6.95652 106.469 10.9565 106.469 16.3478C106.469 21.7391 109.335 25.7391 118.213 25.7391C122.338 25.7391 125.204 25.0435 126.602 24.5217V19.7913C124.505 20.1739 122.442 20.4174 120.52 20.4174C115.941 20.4174 114.613 19.3043 114.508 18.1913H127.895C127.965 17.7043 128 16.9391 128 16.3478C128 10.9565 124.819 6.95652 117.234 6.95652ZM105.001 25.0435H96.9612V0H105.001V25.0435Z" fill="#FAFAFA" fill-opacity="0.4"/>
</svg>
